<?xml version="1.0" encoding="iso-8859-1"?>
<!-- Uploaded to: SVG Repo, www.svgrepo.com, Generator: SVG Repo Mixer Tools -->
<svg fill="#000000" height="800px" width="800px" version="1.1" id="Layer_1" xmlns="http://www.w3.org/2000/svg" xmlns:xlink="http://www.w3.org/1999/xlink" 
	 viewBox="0 0 512 512" xml:space="preserve">
<g>
	<g>
		<g>
			<path d="M490.667,298.667h-21.333v-128c0-35.355-28.645-64-64-64h-42.669H149.331h-42.665c-35.355,0-64,28.645-64,64H21.333
				C9.551,170.667,0,180.218,0,192c0,11.782,9.551,21.333,21.333,21.333h21.333v128c0,35.355,28.645,64,64,64h42.665h213.333h42.669
				c35.355,0,64-28.645,64-64h21.333c11.782,0,21.333-9.551,21.333-21.333C512,308.218,502.449,298.667,490.667,298.667z
				 M85.333,341.333V170.667c0-11.791,9.542-21.333,21.333-21.333h21.331v213.333h-21.331
				C94.875,362.667,85.333,353.125,85.333,341.333z M170.665,362.667V149.333h170.667v213.333H170.665z M426.667,341.333
				c0,11.791-9.542,21.333-21.333,21.333h-21.336V149.333h21.336c11.791,0,21.333,9.542,21.333,21.333V341.333z"/>
			<path d="M298.667,170.667h-85.333C201.551,170.667,192,180.218,192,192c0,11.782,9.551,21.333,21.333,21.333h85.333
				c11.782,0,21.333-9.551,21.333-21.333C320,180.218,310.449,170.667,298.667,170.667z"/>
			<path d="M298.667,234.667h-85.333C201.551,234.667,192,244.218,192,256c0,11.782,9.551,21.333,21.333,21.333h85.333
				c11.782,0,21.333-9.551,21.333-21.333C320,244.218,310.449,234.667,298.667,234.667z"/>
			<path d="M298.667,298.667h-85.333C201.551,298.667,192,308.218,192,320c0,11.782,9.551,21.333,21.333,21.333h85.333
				c11.782,0,21.333-9.551,21.333-21.333C320,308.218,310.449,298.667,298.667,298.667z"/>
		</g>
	</g>
</g>
</svg>